<svg xmlns="http://www.w3.org/2000/svg" xmlns:xlink="http://www.w3.org/1999/xlink" width="50" zoomAndPan="magnify" viewBox="0 0 37.5 37.499999" height="50" preserveAspectRatio="xMidYMid meet" version="1.0"><defs><clipPath id="0a461be410"><path d="M 0 0 L 37 0 L 37 37.007812 L 0 37.007812 Z M 0 0 " clip-rule="nonzero"/></clipPath></defs><g clip-path="url(#0a461be410)"><path fill="#000000" d="M 31.339844 0.0117188 C 31.167969 0.0078125 31 0.0585938 30.859375 0.152344 C 30.859375 0.152344 29.8125 0.902344 26.992188 1.71875 C 24.167969 2.535156 19.640625 3.363281 12.894531 3.363281 C 12.59375 3.363281 12.3125 3.535156 12.179688 3.808594 L 0.222656 27.71875 C 0.00390625 28.027344 0.0273438 28.441406 0.277344 28.722656 C 0.289062 28.738281 0.300781 28.75 0.3125 28.757812 C 0.328125 28.773438 0.339844 28.785156 0.355469 28.800781 C 0.371094 28.816406 0.382812 28.824219 0.398438 28.832031 C 0.621094 29.023438 10.078125 37.007812 25.710938 37.007812 C 26.019531 37.007812 26.296875 36.832031 26.433594 36.554688 L 36.859375 15.25 C 36.980469 15.007812 36.972656 14.714844 36.832031 14.480469 C 36.695312 14.246094 36.449219 14.101562 36.175781 14.085938 C 35.851562 14.074219 35.554688 14.253906 35.417969 14.542969 L 25.226562 35.375 C 20.175781 35.316406 15.839844 34.40625 12.285156 33.230469 C 15.128906 33.628906 18.386719 33.691406 21.996094 33.0625 C 22.25 33.019531 22.464844 32.859375 22.582031 32.625 L 35.410156 6.40625 C 35.539062 6.148438 35.523438 5.84375 35.363281 5.601562 C 35.207031 5.359375 34.933594 5.226562 34.648438 5.242188 C 34.355469 5.261719 34.09375 5.4375 33.972656 5.699219 L 21.332031 31.523438 C 15.171875 32.515625 10.113281 31.464844 6.625 30.199219 C 6.667969 30.199219 6.714844 30.210938 6.761719 30.214844 C 10.25 30.632812 14.636719 30.664062 18.269531 28.917969 C 18.429688 28.839844 18.5625 28.707031 18.640625 28.546875 L 32.039062 1.160156 C 32.15625 0.917969 32.144531 0.628906 32.003906 0.398438 C 31.859375 0.164062 31.613281 0.0195312 31.339844 0.0117188 Z M 29.625 2.449219 L 17.34375 27.554688 C 14.214844 28.972656 10.207031 29.015625 6.953125 28.625 C 4.53125 28.335938 2.9375 27.929688 2.035156 27.679688 L 13.40625 4.933594 C 19.957031 4.886719 24.539062 4.09375 27.4375 3.257812 C 28.429688 2.96875 28.984375 2.714844 29.625 2.449219 Z M 29.625 2.449219 " fill-opacity="1" fill-rule="nonzero"/></g></svg>